<?xml version="1.0" standalone="no"?>
<!DOCTYPE svg PUBLIC "-//W3C//DTD SVG 20010904//EN"
 "http://www.w3.org/TR/2001/REC-SVG-20010904/DTD/svg10.dtd">
<svg version="1.0" xmlns="http://www.w3.org/2000/svg"
 width="250.000000pt" height="250.000000pt" viewBox="0 0 250.000000 250.000000"
 preserveAspectRatio="xMidYMid meet">
<metadata>
Created by potrace 1.11, written by Peter Selinger 2001-2013
</metadata>
<g transform="translate(0.000000,250.000000) scale(0.100000,-0.100000)"
fill="#000000" stroke="none">
<path d="M833 2283 c48 -2 126 -2 175 0 48 1 8 3 -88 3 -96 0 -136 -2 -87 -3z"/>
<path d="M1685 2285 c26 -9 105 -12 105 -4 0 5 -26 9 -57 8 -32 0 -53 -2 -48
-4z"/>
<path d="M605 2190 c-3 -5 -1 -10 4 -10 6 0 11 5 11 10 0 6 -2 10 -4 10 -3 0
-8 -4 -11 -10z"/>
<path d="M548 2129 c-21 -21 -38 -44 -38 -50 0 -6 6 -4 13 3 6 8 28 31 46 51
19 20 31 37 25 36 -5 0 -26 -18 -46 -40z"/>
<path d="M731 2035 l-73 -86 8 -784 7 -785 254 0 254 0 -7 335 -7 335 290 0
290 0 6 122 c4 66 7 138 7 160 l0 38 -294 0 -294 0 -4 143 c-2 78 1 147 5 154
5 7 30 25 55 40 l47 28 267 5 c146 3 269 8 273 11 8 9 30 327 23 335 -4 3 -51
12 -105 20 -71 10 -213 14 -514 14 l-415 0 -73 -85z"/>
<path d="M1998 1845 c-4 -55 -5 -102 -2 -104 11 -12 15 15 12 105 l-3 99 -7
-100z"/>
<path d="M1870 1574 c-25 -9 -102 -13 -265 -14 -126 -1 -241 -6 -255 -10 -14
-5 76 -8 208 -9 253 -1 277 -5 326 -57 l26 -29 0 27 c0 14 -6 29 -12 31 -9 4
-10 8 -2 14 13 10 28 64 17 62 -5 -1 -24 -7 -43 -15z"/>
<path d="M1928 1260 c-5 -63 -8 -137 -7 -165 0 -42 2 -46 10 -26 5 13 8 88 7
165 l-3 141 -7 -115z"/>
<path d="M465 815 c0 -242 1 -340 2 -217 2 123 2 321 0 440 -1 119 -2 19 -2
-223z"/>
<path d="M1341 803 l0 -68 16 40 c20 47 36 65 57 65 9 0 16 4 16 10 0 6 66 11
163 13 161 3 161 3 -45 5 l-208 2 1 -67z"/>
<path d="M1353 435 c0 -27 2 -38 4 -22 2 15 2 37 0 50 -2 12 -4 0 -4 -28z"/>
<path d="M803 193 c59 -2 155 -2 215 0 59 1 10 3 -108 3 -118 0 -167 -2 -107
-3z"/>
</g>
</svg>
